<svg xmlns="http://www.w3.org/2000/svg" viewBox="0 0 40 40" class="undefined">
<style>
  .a{
    fill:none;
  }
  .b{
    fill:#F9D300;
  }
  .c{
    fill:#E20717;
  }
  .d{
    fill:#1E1E1C;
  }
</style>
    <rect width="40" height="40" class="a"/>
    <polygon points="35.4 26.6 40 26.6 40 40 35.4 40 35.4 26.6 " class="b"/>
    <polygon points="35.4 13.4 40 13.4 40 26.6 35.4 26.6 35.4 13.4 " class="c"/>
    <polygon points="35.4 0 40 0 40 13.4 35.4 13.4 35.4 0 " class="d"/>
    <path d="M11.4 32.6L11.4 32.6 11.4 32.6zM11.4 32.6L11.4 32.6 11.4 32.6zM11.4 32.6L11.4 32.6 11.4 32.6zM11.4 32.6L11.4 32.6 11.4 32.6zM22.7 12c0-1.4-1-2.5-1.4-2.8l-0.3 0.1c0.4 0.5 1.1 1.3 1.1 2.3 0 2-2.2 3.8-4.6 3.9 0 0.2 0 0.4 0 0.6 0 0.3 0 0.6-0.1 0.9C20.3 16.7 22.7 14.5 22.7 12L22.7 12zM18.9 29c-1.2 0-1.5-0.1-1.8-0.1 -0.2 0-0.4 0-0.4 0.3 0 0.2 0.2 0.5 0.4 0.6 0.3-0.3 0.7-0.3 1.3-0.3 0.3 0 0.7 0.1 0.9 0.1 0 0.2-0.1 0.4-0.1 0.7 0 0.2 0 0.4 0 0.6 0 0.7-0.1 1.1-0.3 1.4 0.1 0 0.2 0.1 0.3 0.1 0.5 0 0.6-0.2 0.6-1.4 0-0.4 0-0.7 0-0.8 0.6 0.5 1.3 1.4 1.3 2 0.2-0.1 0.5-0.4 0.5-0.7 0-0.4-0.7-1.1-1.5-1.8 0.1 0 0.4-0.1 0.6-0.1 0.6 0 1.1 0.1 1.4 0.4 0.1-0.1 0.2-0.5 0.2-0.7 0-0.4-0.2-0.3-0.4-0.3 -0.6 0-1.4 0.1-2 0.2 -0.2-0.3-1.5-2-1.8-3 -0.1 0-0.2-0.1-0.3-0.1 -0.3 0-0.4 0.2-0.5 0.5C17.9 27.3 18.6 28.3 18.9 29L18.9 29zM11.7 26.5c-0.1-0.3-0.2-0.5-0.5-0.5 -0.2 0-0.2 0-0.3 0.1 -0.3 0.9-1.6 2.7-1.9 3 -0.6-0.1-1.4-0.2-2-0.2 -0.2 0-0.4 0-0.4 0.3 0 0.2 0.1 0.6 0.2 0.7 0.3-0.3 0.8-0.4 1.4-0.4 0.2 0 0.5 0.1 0.6 0.1 -0.8 0.8-1.5 1.4-1.5 1.8 0 0.2 0.2 0.6 0.5 0.7 0-0.6 0.7-1.5 1.3-2 0 0.1 0 0.4 0 0.8 0 1.2 0.1 1.4 0.6 1.4 0.1 0 0.2 0 0.3-0.1 -0.2-0.3-0.4-0.7-0.4-1.4 0-0.2 0-0.4 0-0.6 0-0.3 0-0.5-0.1-0.7 0.2 0 0.6-0.1 0.9-0.1 0.6 0 1 0.1 1.3 0.3 0.2-0.2 0.4-0.4 0.4-0.6 0-0.3-0.2-0.3-0.4-0.3 -0.3 0-0.6 0.1-1.8 0.1C10.3 28.3 11 27.3 11.7 26.5L11.7 26.5zM6.8 11.5c0-1 0.7-1.8 1.1-2.3L7.6 9.2C7.2 9.5 6.2 10.6 6.2 12c0 2.5 2.5 4.8 5.3 4.8 0-0.3 0-0.6 0-0.9 0-0.2 0-0.4 0-0.6C9 15.4 6.8 13.6 6.8 11.5L6.8 11.5zM14.4 9.6c0.1-0.3 0.3-0.6 0.3-1 0-1.1-0.9-1.6-2.1-1.6 -0.6 0-0.9 0.2-0.9 0.4 0 0.2 0.2 0.6 0.3 0.8 0.2-0.1 0.6-0.2 0.8-0.2C13.6 7.9 14.3 8.9 14.4 9.6L14.4 9.6zM15 8.2c0.7 0.1 1.2-0.8 0.5-0.9 0.1 0.3-0.4 0.5-0.4 0.5S15 7.4 15.2 7.2c-0.4-0.2-0.5 0-0.5 0.3C14.8 7.7 14.9 8 15 8.2L15 8.2zM17.2 14.3c0.1 0 0.2 0 0.3 0 2 0 3.9-1.3 3.9-2.9 0-0.9-0.4-1.5-0.9-2.1 -0.3 0-0.5 0.1-0.7 0.1 -0.9 0-1.4-0.5-1.4-0.9 0-0.4 0.3-0.7 0.9-0.7 0.8 0 2.3 0.8 3.8 0.8 -0.1 0.1-0.4 0.2-0.7 0.3 0.9 0.8 1.5 1.9 1.7 3l2.3 3.7c0.4 0.6 1.2 1.8 2.5 2.8 -1.5 0-2.5 0-3.8-2L24 14.5c-0.1 0.2-0.2 0.5-0.3 0.7L26 19c0.4 0.6 1.2 1.8 2.5 2.8 -1.5 0-2.5 0-3.8-2l-2-3.3c-0.2 0.2-0.3 0.3-0.5 0.5l2.9 4.6c0.4 0.6 1.2 1.8 2.5 2.8 -1.5 0-2.5 0-3.8-2L21 17.9c-0.2 0.1-0.4 0.2-0.6 0.3l3.4 5.5c0.4 0.6 1.2 1.8 2.5 2.8 -1.5 0-2.5 0-3.8-2L19 18.9c-0.2 0.1-0.4 0.2-0.6 0.2l4 6.4c0.4 0.6 1.2 1.8 2.5 2.8 -1.5 0-2.5 0-3.8-2l-4.2-6.8 -0.1 0c-0.1 0.4-0.2 0.7-0.2 1.1 0 2.1 1.4 4 3.1 5.5 -0.1 0-0.3 0.1-0.5 0.1 -0.3 0-0.6 0-0.7 0 0.4 0.9 1.2 2 1.6 2.6 0.5-0.1 1.3-0.2 1.9-0.2 0.5 0 0.6 0.3 0.6 0.6 0 0.5-0.2 0.9-0.5 1.1 -0.1-0.3-0.3-0.6-1.3-0.6l-0.1 0c0.3 0.3 1.2 1.1 1.2 1.7 0 0.4-0.4 1-1 1 0-0.1 0-0.2 0-0.3 0-0.5-0.4-1.1-0.8-1.5 0 0.1 0 0.1 0 0.2 0 1.2-0.1 1.7-0.8 1.7 -0.4 0-0.6-0.2-0.7-0.3 0.5-0.4 0.5-0.8 0.5-1.4l0-0.6c0-0.1 0-0.3 0-0.5 -0.3 0-0.4 0-0.6 0 0 0-1-0.1-1.3 0.5 -0.3-0.3-0.7-0.6-0.7-1 0-0.3 0.1-0.6 0.7-0.6 0.2 0 0.8 0.1 1.4 0.1 -0.1-0.3-0.8-1.3-1.3-1.9 -0.1 0.3-0.2 0.5-0.5 0.8 0-0.4-0.3-1.8-1-2.6 -0.1 0.5-0.2 1.1-0.2 2.3 0 2.9 0.7 5 2.2 5.4 -0.2 0.3-0.6 0.6-1 0.6 -0.5 0-0.8-0.6-1.1-1.2 -0.2 0.4-0.6 1.5-1 1.5 -0.4 0-0.9-1-1-1.5 -0.3 0.6-0.6 1.2-1.1 1.2 -0.4 0-0.8-0.3-1-0.6 1.5-0.4 2.2-2.5 2.2-5.4 0-1.2-0.1-1.7-0.2-2.3 -0.7 0.8-0.9 2.2-1 2.6 -0.3-0.2-0.4-0.5-0.5-0.8 -0.6 0.7-1.2 1.6-1.3 1.9 0.5 0 1.2-0.1 1.4-0.1 0.5 0 0.7 0.3 0.7 0.6 0 0.4-0.4 0.8-0.7 1 -0.3-0.5-1.3-0.5-1.3-0.5 -0.2 0-0.3 0-0.6 0 0 0.1 0 0.3 0 0.5l0 0.6c0 0.6 0 1 0.5 1.4 -0.1 0.1-0.3 0.3-0.7 0.3 -0.7 0-0.8-0.5-0.8-1.7 0-0.1 0-0.1 0-0.2 -0.4 0.4-0.8 1-0.8 1.5 0 0.1 0 0.2 0 0.3 -0.6 0-1-0.6-1-1 0-0.6 0.9-1.4 1.2-1.7l-0.1 0c-1 0-1.2 0.3-1.3 0.6 -0.3-0.2-0.5-0.6-0.5-1.1 0-0.3 0.1-0.6 0.6-0.6 0.5 0 1.3 0.1 1.9 0.2 0.4-0.6 1.3-1.7 1.6-2.6 -0.2 0-0.4 0-0.7 0 -0.2 0-0.4 0-0.5-0.1 1.7-1.5 3.1-3.3 3.1-5.5 0-0.3-0.1-0.7-0.2-1.1l-0.1 0 -4.2 6.8c-1.3 2-2.3 2-3.8 2 1.2-0.9 2.1-2.2 2.5-2.8l4-6.4c-0.2-0.1-0.4-0.1-0.6-0.2l-3.5 5.6c-1.3 2-2.3 2-3.8 2 1.2-1 2.1-2.2 2.5-2.8l3.4-5.5C8.3 18.2 8.2 18 8 17.9l-2.8 4.5c-1.3 2-2.3 2-3.8 2 1.2-1 2.1-2.2 2.5-2.8L6.7 17c-0.2-0.2-0.3-0.3-0.5-0.5l-2 3.3c-1.3 2-2.3 2-3.8 2 1.2-1 2.1-2.2 2.5-2.8l2.4-3.8c-0.1-0.2-0.2-0.5-0.3-0.7l-1.2 1.9c-1.3 2-2.3 2-3.8 2 1.2-1 2.1-2.2 2.5-2.8l2.3-3.7c0.2-1.1 0.8-2.2 1.7-3C6.2 8.7 5.9 8.6 5.8 8.5c1.5 0 3-0.8 3.8-0.8 0.5 0 0.9 0.3 0.9 0.7 0 0.5-0.5 0.9-1.4 0.9 -0.2 0-0.5 0-0.7-0.1 -0.5 0.7-0.9 1.3-0.9 2.1 0 1.6 1.9 2.9 3.9 2.9 0.1 0 0.2 0 0.3 0 0.4-1.3 1.2-2.2 1.9-3 -0.8-0.3-1.7-1-1.7-1.4 0.1-0.1 1.6 0.4 1.8 0.5 0 0 0.1 0 0.1 0 0.2-0.1 0.3-0.3 0.3-0.4C14 10 13 9.9 12.4 9.6c-0.5-0.2-0.7-0.5-0.7-0.6 0.2 0 0.8 0.3 1.6 0.3 0.3 0 0.4 0 0.7-0.1 -0.2-0.5-0.7-1-1.1-1 -0.2 0-0.6 0.1-1 0.3 -0.2-0.4-0.5-0.9-0.5-1.2 0-0.3 0.3-0.7 1.2-0.7 0.3 0 0.5 0 0.7 0.1 0.2 0 0.3 0.1 0.5 0.1 0 0 0-0.1 0-0.1 0-0.1 0.1-0.3 0.5-0.3 0.7 0 1.5 0.2 2.5 0.2 0.2 0 0.4 0 0.5-0.1 -0.1 0.2-0.3 0.5-0.6 0.7 0.1 0.2 0.5 0.7 0.5 1.5 0 1.3-0.8 2.3-0.8 3.6C16.5 13.2 17.1 13.9 17.2 14.3L17.2 14.3z" class="d"/>
</svg>
