<svg xmlns="http://www.w3.org/2000/svg" data-name="Layer 1" viewBox="0 0 100 125" x="0px" y="0px"><title>07</title><g data-name="Group"><path data-name="Compound Path" d="M51,89.5v-47a9,9,0,0,0,0-17.9V10.5H49V24.6a9,9,0,0,0,0,17.9v47Zm-8-56a7,7,0,1,1,7,7A7,7,0,0,1,43,33.5Z"/><path data-name="Compound Path" d="M78.5,89.5V75.4a9,9,0,0,0,0-17.9v-47h-2v47a9,9,0,0,0,0,17.9V89.5Zm-8-23a7,7,0,1,1,7,7A7,7,0,0,1,70.5,66.5Z"/><path data-name="Compound Path" d="M23.5,89.5V75.4a9,9,0,0,0,0-17.9v-47h-2v47a9,9,0,0,0,0,17.9V89.5Zm-8-23a7,7,0,1,1,7,7A7,7,0,0,1,15.5,66.5Z"/></g><text x="0" y="115" fill="#000000" font-size="5px" font-weight="bold" font-family="'Helvetica Neue', Helvetica, Arial-Unicode, Arial, Sans-serif">Created by Bharat</text><text x="0" y="120" fill="#000000" font-size="5px" font-weight="bold" font-family="'Helvetica Neue', Helvetica, Arial-Unicode, Arial, Sans-serif">from the Noun Project</text></svg>