<svg xmlns="http://www.w3.org/2000/svg" viewBox="0 0 22 27.5" x="0" y="0" version="1"><title>  reset</title><desc>  Created with Sketch.</desc><g style="fill-rule:evenodd;fill:none;stroke-width:1;stroke:none"><g fill="#000"><path d="M12.4 3C7.9 3 4.4 6.6 4.4 11 4.4 11.5 4.4 12 4.5 12.4L1.7 9.6 1 10.4 5 14.4 5 14.4 5.4 14.7 5.7 14.4 5.7 14.4 9.7 10.4 9 9.6 5.6 13C5.5 12.4 5.4 11.7 5.4 11 5.4 7.1 8.5 4 12.4 4 16.2 4 19.4 7.1 19.4 11 19.4 14.9 16.2 18 12.4 18L12.4 19C16.8 19 20.4 15.4 20.4 11 20.4 6.6 16.8 3 12.4 3"/></g></g></svg>